HIERARCHY
ROOT Hips
{
  OFFSET 265.287 66.7526 -254.649
  CHANNELS 6 Xposition Yposition Zposition Zrotation Xrotation Yrotation
  JOINT LeftUpLeg
  {
    OFFSET 8.64259 1.95398 -2.38835
    CHANNELS 3 Zrotation Xrotation Yrotation
    JOINT LeftLeg
    {
      OFFSET 43.7702 0 0
      CHANNELS 3 Zrotation Xrotation Yrotation
      JOINT LeftFoot
      {
        OFFSET 40.6238 0 0
        CHANNELS 3 Zrotation Xrotation Yrotation
        JOINT LeftToeBase
        {
          OFFSET 12.7242 0 0
          CHANNELS 3 Zrotation Xrotation Yrotation
          End Site
          {
            OFFSET 0 0 0
          }
        }
      }
    }
  }
  JOINT RightUpLeg
  {
    OFFSET -8.2249 1.95398 -2.59336
    CHANNELS 3 Zrotation Xrotation Yrotation
    JOINT RightLeg
    {
      OFFSET 43.5653 0 0
      CHANNELS 3 Zrotation Xrotation Yrotation
      JOINT RightFoot
      {
        OFFSET 40.6238 0 0
        CHANNELS 3 Zrotation Xrotation Yrotation
        JOINT RightToeBase
        {
          OFFSET 12.7242 0 0
          CHANNELS 3 Zrotation Xrotation Yrotation
          End Site
          {
            OFFSET 0 0 0
          }
        }
      }
    }
  }
  JOINT Spine
  {
    OFFSET 0.165834 0.87714 6.61349
    CHANNELS 3 Zrotation Xrotation Yrotation
    JOINT Spine1
    {
      OFFSET 7.38963 1.71661e-005 0
      CHANNELS 3 Zrotation Xrotation Yrotation
      JOINT Spine2
      {
        OFFSET 11.9445 1.14441e-005 0
        CHANNELS 3 Zrotation Xrotation Yrotation
        JOINT Spine3
        {
          OFFSET 14.7254 4.19617e-005 0
          CHANNELS 3 Zrotation Xrotation Yrotation
          JOINT Spine4
          {
            OFFSET 10.9679 0 0
            CHANNELS 3 Zrotation Xrotation Yrotation
            JOINT RightShoulder
            {
              OFFSET 2.46616 -1.6653 3.69651
              CHANNELS 3 Zrotation Xrotation Yrotation
              JOINT RightArm
              {
                OFFSET 13.0012 0 0
                CHANNELS 3 Zrotation Xrotation Yrotation
                JOINT RightForeArm
                {
                  OFFSET 28.7848 1.52588e-005 0
                  CHANNELS 3 Zrotation Xrotation Yrotation
                  JOINT RightHand
                  {
                    OFFSET 26.5688 1.52588e-005 0
                    CHANNELS 3 Zrotation Xrotation Yrotation
                    End Site
                    {
                      OFFSET 0 0 0
                    }
                  }
                }
              }
            }
            JOINT LeftShoulder
            {
              OFFSET 2.38034 -1.29275 -3.7523
              CHANNELS 3 Zrotation Xrotation Yrotation
              JOINT LeftArm
              {
                OFFSET 16.3182 6.10351e-005 0
                CHANNELS 3 Zrotation Xrotation Yrotation
                JOINT LeftForeArm
                {
                  OFFSET 27.0901 0 0
                  CHANNELS 3 Zrotation Xrotation Yrotation
                  JOINT LeftHand
                  {
                    OFFSET 24.5451 1.52588e-005 0
                    CHANNELS 3 Zrotation Xrotation Yrotation
                    End Site
                    {
                      OFFSET 0 0 0
                    }
                  }
                }
              }
            }
            JOINT Neck
            {
              OFFSET 5.0226 -0.0266342 0
              CHANNELS 3 Zrotation Xrotation Yrotation
              JOINT Head
              {
                OFFSET 6.69364 2.86102e-005 0
                CHANNELS 3 Zrotation Xrotation Yrotation
                End Site
                {
                  OFFSET 0 0 0
                }
              }
            }
          }
        }
      }
    }
  }
}
MOTION
Frames:	13
Frame Time:	0.0416667
82.2102 93.8432 5.96977 -104.741 -45.9967 -102.855 -176.073 11.303 85.9277 -33.979 20.2595 2.01536 61.2435 2.20147 17.0356 39.4861 -3.25918 -4.10399 171.528 18.5385 85.1121 -72.6102 -9.57745 -1.74388 45.2549 6.99875 17.9896 34.186 -0.844862 0.927926 -0.242272 8.3575 -89.5681 10.1592 -0.285767 0.88167 -1.51199 -0.246698 0.893393 -24.0455 -0.537521 0.755034 -4.03288 -0.537521 0.755043 100.954 -50.5756 -84.0413 32.6362 -4.42485 -6.15027 -4.04384 -27.6945 -16.3237 -8.6649 -0.582323 2.78681 -83.0644 -52.9297 89.2137 -20.6946 8.66662 -16.6675 7.59409 31.0819 -10.8912 -1.87874 -0.0658036 1.36611 -4.4001 -3.6571 -2.9224 -13.379 -3.59428 2.74262 
77.9006 95.0209 10.4401 -103.234 -43.6354 -101.156 -175.128 5.53842 86.688 -30.2723 17.4102 1.63383 63.811 3.27067 15.4946 38.8642 -3.06976 -2.62813 170.771 22.4652 86.1564 -59.1496 -8.79351 0.225501 53.5019 4.26284 17.5312 37.6164 -1.32897 1.76756 -0.603981 8.23989 -89.5869 10.3977 -1.01374 0.909521 -1.27315 -0.972755 0.953247 -23.8103 -1.24022 0.562781 -3.7977 -1.24024 0.562769 101.018 -50.7367 -83.9385 32.2492 -3.44321 -2.73423 -4.12189 -25.7691 -16.7631 -9.08843 -0.569006 2.2338 -82.726 -50.8897 89.5358 -18.3761 7.60699 -25.4942 8.57222 26.7968 -12.6077 1.36583 0.0711987 0.628054 -5.4551 -5.8424 -2.40395 -12.0221 -5.51436 -1.37392 
73.6035 95.8905 14.3456 -101.085 -39.8675 -99.6752 -174.465 0.0710082 86.3501 -24.246 14.1985 0.859666 63.7621 3.69096 15.9905 40.0031 -3.47187 -1.0615 168.573 19.5677 86.4462 -33.9522 4.63605 4.40437 56.0295 3.44868 13.9617 47.3942 -2.52799 3.46535 -0.776638 8.041 -89.5918 10.7974 -1.35798 0.937398 -0.873263 -1.31541 0.996246 -23.4132 -1.57692 0.485861 -3.40059 -1.57692 0.485862 101.155 -50.7755 -83.7268 31.8933 -1.77883 -1.42937 -4.10725 -25.0303 -16.0155 -8.78784 -0.595721 2.88206 -82.8934 -49.3454 89.1457 -15.4803 6.34726 -30.3777 10.4824 20.3433 -18.8779 3.16979 0.106217 -0.319328 -5.75482 -7.9372 -1.93173 -11.0662 -7.48624 -4.18946 
68.7357 96.1286 17.6818 -97.917 -33.3318 -98.71 -174.417 -4.13231 85.4523 -21.2306 10.8865 -0.323881 61.7722 3.45414 15.6651 46.0351 -5.18586 2.46517 169.374 16.1291 87.0949 -19.695 25.9189 7.4627 55.5807 5.79672 9.28485 38.8129 -1.4131 0.823462 -0.61214 7.66597 -89.5601 11.5458 -1.0119 0.979933 -0.125207 -0.967798 1.0235 -22.6621 -1.25963 0.630492 -2.64941 -1.25959 0.630498 101.007 -50.712 -83.956 31.5459 -0.237457 -0.778026 -4.44256 -25.2627 -14.9609 -7.75619 -0.469532 1.98474 -82.1632 -48.6082 90.2023 -14.1062 5.36196 -31.9765 12.9067 16.6901 -26.1099 5.6554 0.227262 0.132322 -5.6104 -9.17943 -0.632613 -10.9749 -8.7585 -5.50964 
63.5546 95.3474 21.2103 -97.0388 -25.448 -97.8918 -174.661 -1.66047 84.9076 -33.0637 7.7158 -0.644683 56.5526 1.13834 9.06246 56.005 -7.48162 6.36466 170.691 17.5748 88.5918 -27.2386 21.0956 6.12734 61.9856 5.58331 5.2287 33.0313 -0.603935 -0.164832 -0.247859 7.582 -89.7443 11.7105 -0.372971 0.548721 0.0395241 -0.348439 0.564602 -22.4955 -0.52064 0.411262 -2.48282 -0.520652 0.411263 101.072 -50.822 -83.8544 30.8961 -0.0945518 -2.22023 -4.04588 -25.5135 -13.9938 -7.53121 -0.509262 2.87426 -82.1132 -49.5488 90.3534 -12.7943 5.91363 -30.0577 15.7182 16.7086 -32.2847 5.7406 0.0919526 -1.79722 -4.24374 -9.00821 0.719233 -10.6048 -8.69406 -5.93499 
58.922 94.3226 23.323 -97.142 -19.3455 -95.2701 -171.234 10.5362 87.3719 -56.5166 5.99232 -0.871396 46.4159 -2.71693 2.38451 53.0186 -7.45086 0.338756 172.078 17.9082 91.1914 -35.271 17.8656 5.24731 65.9519 5.88131 8.01552 31.1047 -0.107451 -2.4614 -0.101251 7.59465 -90.2095 11.6838 -0.299795 -0.388381 0.0128528 -0.316613 -0.374815 -22.5219 -0.169226 -0.46053 -2.50927 -0.169231 -0.460535 101.169 -50.4219 -83.7123 29.4824 -1.23621 -4.11342 -4.77936 -24.5984 -16.5252 -8.27493 -0.518616 2.25014 -82.4462 -48.3224 89.7429 -17.3743 9.58131 -25.7012 16.3821 17.2066 -33.7748 6.84345 0.154515 -1.34783 -5.57888 -9.78686 -1.8186 -8.98897 -9.3508 -5.41903 
54.6669 94.4545 25.1329 -98.5735 -9.86031 -96.175 -175.672 17.5133 89.3326 -64.0811 2.9615 1.12048 48.6766 -0.880054 8.71998 47.8103 -5.71231 2.03456 173.151 13.9454 92.3002 -36.151 11.1492 3.98616 68.2861 3.96891 6.69954 28.2768 0.363675 -2.48932 -0.0406798 7.81489 -90.3753 11.2425 -0.255671 -0.720243 -0.428663 -0.287099 -0.708298 -22.9621 -0.0273838 -0.763775 -2.94943 -0.0273816 -0.763781 101.443 -51.1048 -83.2764 27.6667 -3.86082 -8.16142 -5.0174 -22.0807 -20.3085 -10.0642 -0.568467 1.42643 -82.4971 -49.8642 89.7924 -19.2894 13.6045 -19.5992 17.0359 20.0032 -34.2473 3.48542 0.0203292 -2.18313 -6.71984 -11.5712 -2.93721 -8.99575 -10.9162 -8.77227 
50.4438 95.2855 26.5319 -96.8953 3.4583 -90.8754 179.006 19.5413 88.7032 -53.8924 3.93097 3.37398 52.9588 1.09435 10.8991 48.7962 -5.94854 2.80696 175.384 11.3311 92.4602 -33.7589 3.23734 1.3889 69.8449 1.43958 7.63139 27.1357 0.486734 -1.88757 0.181684 7.71879 -90.3374 11.4364 0.203946 -0.692831 -0.234704 0.173258 -0.70114 -22.7688 0.402736 -0.599512 -2.75616 0.402723 -0.59952 101.27 -50.3811 -83.5561 28.2742 -7.07408 -10.5282 -6.37542 -20.3791 -26.0736 -10.6546 -0.50986 0.407591 -81.9062 -52.2972 90.8686 -24.7074 12.5667 -10.4429 18.151 25.4123 -31.6147 -2.07136 -0.083025 -2.56893 -7.65789 -13.8846 -1.87656 -9.26717 -13.1661 -12.078 
46.5105 96.2007 27.5838 -93.8441 18.0801 -92.7051 174.504 17.2991 90.0336 -33.0835 11.6045 6.88436 55.1499 2.0961 9.85167 51.7279 -6.4171 6.33326 177.41 10.2963 92.0139 -30.5026 -5.81022 -0.99535 69.3701 0.506486 11.087 27.8814 0.432764 -2.44446 0.314472 7.52211 -90.3517 11.8307 0.459984 -0.750245 0.159608 0.426511 -0.769765 -22.3751 0.664196 -0.577329 -2.36241 0.664179 -0.577326 101.209 -49.5888 -83.6638 28.1775 -11.2151 -13.0641 -7.88861 -22.2345 -29.7776 -10.7265 -0.449316 -0.322886 -81.3985 -54.2623 91.7372 -30.9787 7.99102 -2.86739 15.4027 29.1345 -23.4739 -5.77789 -0.164195 -1.89206 -5.09028 -14.6281 0.462395 -10.7204 -13.7561 -14.4492 
42.5272 96.5294 27.7573 -90.7593 30.549 -92.156 174.378 13.5202 92.5253 -14.4302 29.9304 9.97772 57.3354 2.39497 7.25317 50.6904 -6.05215 7.49089 178.847 9.42459 92.0412 -27.5344 -12.5735 -2.45719 69.7482 -0.455634 14.3462 26.2048 0.679754 -2.23288 0.370013 7.43092 -90.4085 12.0137 0.542922 -0.874089 0.34252 0.503926 -0.897142 -22.192 0.780521 -0.670514 -2.17938 0.780491 -0.670524 101.346 -50.2493 -83.4399 27.2683 -12.8173 -14.2548 -7.6577 -21.608 -30.8 -11.9438 -0.592419 0.599753 -81.8902 -54.4702 91.0407 -34.0953 7.48602 -2.4777 10.63 38.2707 -13.4295 -9.33944 -0.193912 -2.7275 -2.7299 -14.2913 -1.70059 -10.531 -13.3518 -11.313 
37.9945 96.2509 27.1514 -89.761 40.6234 -91.9775 177.883 12.651 91.7122 -13.2256 33.7997 11.6806 59.9764 1.00487 1.644 49.4744 -5.83246 6.59522 -179.18 8.24356 92.0703 -28.9751 -17.8652 -5.31082 71.0251 -1.52832 15.0079 25.058 0.635514 -0.556847 0.327625 7.58668 -90.3091 11.7013 0.506486 -0.669459 0.0302893 0.476534 -0.691101 -22.5048 0.684253 -0.486289 -2.49213 0.684262 -0.486292 101.077 -50.1718 -83.8587 27.954 -11.4174 -13.6193 -5.36847 -19.2181 -27.7113 -12.22 -0.635283 0.781856 -82.4452 -53.9425 90.1999 -33.3554 7.84751 -5.03469 7.50556 43.2009 -8.1191 -3.76696 -0.1117 -0.549594 -3.06372 -12.8658 -3.11953 -8.9466 -12.003 -9.73119 
33.1544 95.4091 25.915 -90.7171 46.201 -91.3955 176.062 12.2275 90.9369 -19.789 31.7286 10.1426 57.0703 1.11138 6.83913 47.9076 -5.55092 5.11387 -176.663 6.83997 91.8282 -34.1006 -18.5535 -8.50762 73.5473 -2.8325 15.2904 29.1993 0.0401221 -1.09254 0.0595768 7.73894 -90.1159 11.3962 0.0643281 -0.237454 -0.274756 0.0538005 -0.240057 -22.8098 0.132704 -0.207141 -2.79713 0.132713 -0.207145 101.48 -50.8269 -83.225 27.8761 -8.76095 -9.77901 -3.91252 -16.7503 -25.5114 -13.6053 -0.854264 2.1717 -82.5439 -52.1251 89.9119 -29.8862 8.41914 -5.95104 10.111 36.7782 -12.9118 1.95668 0.0974491 0.743715 -4.34532 -11.4708 -3.94856 -8.27783 -10.7001 -8.04906 
28.8881 94.8527 24.1727 -91.5579 51.9243 -91.1962 177.887 11.4471 89.4066 -25.6182 28.4459 8.87019 60.8482 2.91676 10.771 45.0455 -4.8768 3.38006 -175.835 9.64119 89.7594 -42.9146 -19.9874 -8.51959 66.4894 -0.0598687 17.1884 38.3227 -1.43655 1.95084 -0.084401 7.84511 -89.8901 11.1837 -0.116902 0.230205 -0.487243 -0.106653 0.235122 -23.0223 -0.180679 0.184431 -3.00968 -0.180679 0.184428 101.612 -50.8963 -83.0199 28.8665 -6.30848 -6.72247 -1.20712 -13.7951 -20.0042 -17.0567 -1.04767 1.96449 -82.6347 -51.277 89.7068 -23.6044 6.52339 -10.1666 10.1329 29.0882 -14.0335 3.51437 0.203552 1.34483 -4.36109 -9.78905 -3.29773 -8.15991 -9.15453 -6.62456 
